<svg width="251" height="32" viewBox="0 0 251 32" fill="none" xmlns="http://www.w3.org/2000/svg">
<path d="M79.168 4.12L82.64 12.584L86.176 4.12H87.424V15H86.384V10.008L86.496 5.624L83.12 13.72H82.08L78.768 5.592L78.88 10.008V15H77.84V4.12H79.168ZM96.3376 15.08C95.9003 15.08 95.5376 14.9733 95.2496 14.76C94.9616 14.536 94.791 14.2427 94.7376 13.88C94.1616 14.392 93.655 14.7333 93.2176 14.904C92.7803 15.0747 92.3696 15.16 91.9856 15.16C91.303 15.16 90.7963 14.9413 90.4656 14.504C90.1456 14.056 89.9856 13.5227 89.9856 12.904C89.9856 12.488 90.0603 12.1147 90.2096 11.784C90.3696 11.4533 90.631 11.192 90.9936 11C91.3563 10.7973 91.8523 10.696 92.4816 10.696C92.7696 10.696 93.1056 10.7173 93.4896 10.76C93.8736 10.792 94.247 10.84 94.6096 10.904V9.752C94.6096 9.05867 94.4763 8.584 94.2096 8.328C93.943 8.06133 93.527 7.928 92.9616 7.928C92.5776 7.928 92.199 7.98133 91.8256 8.088C91.4523 8.184 91.063 8.328 90.6576 8.52L90.3216 7.736C90.759 7.512 91.191 7.34133 91.6176 7.224C92.055 7.10667 92.503 7.048 92.9616 7.048C93.6763 7.048 94.215 7.16533 94.5776 7.4C94.951 7.624 95.207 7.928 95.3456 8.312C95.4843 8.696 95.5536 9.12267 95.5536 9.592V13.208C95.5536 13.5067 95.6016 13.7467 95.6976 13.928C95.8043 14.1093 96.007 14.2 96.3056 14.2H96.4976V15.08H96.3376ZM90.9776 12.904C90.9776 13.3307 91.0736 13.672 91.2656 13.928C91.4683 14.184 91.7563 14.312 92.1296 14.312C92.4283 14.312 92.775 14.216 93.1696 14.024C93.575 13.832 94.055 13.4853 94.6096 12.984V11.752C94.2363 11.688 93.8523 11.64 93.4576 11.608C93.0736 11.5653 92.7536 11.544 92.4976 11.544C91.9643 11.544 91.575 11.656 91.3296 11.88C91.095 12.0933 90.9776 12.4347 90.9776 12.904ZM102.408 8.008C101.96 8.008 101.512 8.09333 101.064 8.264C100.616 8.43467 100.093 8.81333 99.4956 9.4V15H98.5356V7.208H99.4476V8.504C99.9916 7.93867 100.498 7.55467 100.968 7.352C101.437 7.14933 101.917 7.048 102.408 7.048V8.008ZM109.968 7.832V18.408H109.008V13.928C108.549 14.3547 108.101 14.6693 107.664 14.872C107.227 15.064 106.784 15.16 106.336 15.16C105.525 15.16 104.901 14.8453 104.464 14.216C104.027 13.5867 103.808 12.7067 103.808 11.576V10.616C103.808 9.528 104.08 8.664 104.624 8.024C105.168 7.37333 105.963 7.048 107.008 7.048C108 7.048 108.987 7.30933 109.968 7.832ZM104.816 11.576C104.816 12.4933 104.955 13.1707 105.232 13.608C105.509 14.0347 105.941 14.248 106.528 14.248C106.869 14.248 107.221 14.1627 107.584 13.992C107.957 13.8213 108.432 13.4747 109.008 12.952V8.376C108.347 8.07733 107.696 7.928 107.056 7.928C106.256 7.928 105.68 8.168 105.328 8.648C104.987 9.128 104.816 9.784 104.816 10.616V11.576ZM117.869 15V13.88C117.272 14.3813 116.744 14.7227 116.285 14.904C115.837 15.0747 115.41 15.16 115.005 15.16C114.322 15.16 113.8 14.9413 113.437 14.504C113.074 14.056 112.893 13.4267 112.893 12.616V7.208H113.853V12.44C113.853 13.0587 113.96 13.5173 114.173 13.816C114.386 14.104 114.717 14.248 115.165 14.248C115.485 14.248 115.848 14.168 116.253 14.008C116.669 13.8373 117.192 13.496 117.821 12.984V7.208H118.781V15H117.869ZM127.289 14.536C126.852 14.76 126.393 14.92 125.913 15.016C125.444 15.112 125.017 15.16 124.633 15.16C123.545 15.16 122.734 14.8453 122.201 14.216C121.678 13.5867 121.417 12.7067 121.417 11.576V10.616C121.417 9.53867 121.684 8.67467 122.217 8.024C122.75 7.37333 123.518 7.048 124.521 7.048C125.31 7.048 125.972 7.28267 126.505 7.752C127.049 8.22133 127.321 8.93067 127.321 9.88C127.321 10.3173 127.257 10.8187 127.129 11.384H122.393V11.576C122.393 12.4507 122.569 13.1227 122.921 13.592C123.273 14.0507 123.844 14.28 124.633 14.28C124.953 14.28 125.321 14.2373 125.737 14.152C126.164 14.0667 126.574 13.9333 126.969 13.752L127.289 14.536ZM124.521 7.928C123.806 7.928 123.273 8.16267 122.921 8.632C122.569 9.09067 122.393 9.72533 122.393 10.536H126.313C126.334 10.3973 126.35 10.2693 126.361 10.152C126.372 10.024 126.377 9.90667 126.377 9.8C126.377 9.13867 126.19 8.664 125.817 8.376C125.454 8.07733 125.022 7.928 124.521 7.928ZM131.404 14.28C132.054 14.28 132.508 14.1733 132.764 13.96C133.03 13.736 133.164 13.416 133.164 13C133.164 12.648 133.057 12.36 132.844 12.136C132.641 11.912 132.257 11.7307 131.692 11.592L130.828 11.384C130.22 11.2347 129.756 10.9733 129.436 10.6C129.126 10.216 128.972 9.752 128.972 9.208C128.972 8.83467 129.052 8.488 129.212 8.168C129.382 7.83733 129.649 7.57067 130.012 7.368C130.385 7.15467 130.876 7.048 131.484 7.048C131.878 7.048 132.278 7.096 132.684 7.192C133.089 7.27733 133.489 7.416 133.884 7.608L133.564 8.424C132.817 8.09333 132.124 7.928 131.484 7.928C130.982 7.928 130.593 8.02933 130.316 8.232C130.049 8.43467 129.916 8.73867 129.916 9.144C129.916 9.45333 130.012 9.73067 130.204 9.976C130.406 10.2213 130.774 10.408 131.308 10.536L132.188 10.744C133.468 11.0427 134.108 11.7787 134.108 12.952C134.108 13.3573 134.028 13.7307 133.868 14.072C133.708 14.4027 133.436 14.6693 133.052 14.872C132.668 15.064 132.145 15.16 131.484 15.16C131.036 15.16 130.593 15.112 130.156 15.016C129.718 14.92 129.27 14.7707 128.812 14.568L129.068 13.752C129.494 13.9227 129.884 14.056 130.236 14.152C130.598 14.2373 130.988 14.28 131.404 14.28ZM142.228 14.28C142.804 14.28 143.273 14.1413 143.636 13.864C144.009 13.576 144.238 13.2027 144.324 12.744C144.409 12.2747 144.302 11.768 144.004 11.224L144.788 10.744L147.476 15H146.356L145.076 12.936C145.044 13.5653 144.777 14.0933 144.276 14.52C143.774 14.9467 143.092 15.16 142.228 15.16C141.278 15.16 140.542 14.9093 140.02 14.408C139.508 13.896 139.252 13.224 139.252 12.392C139.252 11.6667 139.438 11.0747 139.812 10.616C140.196 10.1573 140.74 9.71467 141.444 9.288C140.42 8.33867 139.908 7.368 139.908 6.376C139.908 5.68267 140.137 5.10667 140.596 4.648C141.065 4.18933 141.732 3.96 142.596 3.96C143.385 3.96 144.009 4.17333 144.468 4.6C144.937 5.016 145.172 5.61867 145.172 6.408C145.172 7.12267 144.99 7.69867 144.628 8.136C144.276 8.57333 143.817 8.95733 143.252 9.288L142.116 9.944C141.465 10.3173 140.99 10.6907 140.692 11.064C140.404 11.4267 140.26 11.8693 140.26 12.392C140.26 13.0427 140.446 13.5227 140.82 13.832C141.204 14.1307 141.673 14.28 142.228 14.28ZM140.9 6.376C140.9 6.71733 140.99 7.09067 141.172 7.496C141.364 7.89067 141.705 8.33867 142.196 8.84L142.804 8.472C143.209 8.22667 143.54 7.944 143.796 7.624C144.052 7.304 144.18 6.888 144.18 6.376C144.18 5.82133 144.03 5.42133 143.732 5.176C143.444 4.93067 143.07 4.808 142.612 4.808C142.11 4.808 141.7 4.94133 141.38 5.208C141.06 5.464 140.9 5.85333 140.9 6.376ZM158.18 10.136H154.036V15H152.996V4.12H158.66V5.064H154.036V9.192H158.18V10.136ZM161.842 4.984H160.69V3.816H161.842V4.984ZM161.746 15H160.786V7.208H161.746V15ZM168.482 7.96C168.151 7.96 167.772 8.04 167.346 8.2C166.919 8.36 166.386 8.70133 165.746 9.224V15H164.786V7.208H165.698V8.328C166.316 7.816 166.86 7.47467 167.33 7.304C167.799 7.13333 168.236 7.048 168.642 7.048C169.356 7.048 169.9 7.26667 170.274 7.704C170.647 8.14133 170.834 8.77067 170.834 9.592V15H169.874V9.768C169.874 9.13867 169.756 8.68 169.522 8.392C169.298 8.104 168.951 7.96 168.482 7.96ZM179.273 14.536C178.836 14.76 178.377 14.92 177.897 15.016C177.428 15.112 177.001 15.16 176.617 15.16C175.529 15.16 174.719 14.8453 174.185 14.216C173.663 13.5867 173.401 12.7067 173.401 11.576V10.616C173.401 9.53867 173.668 8.67467 174.201 8.024C174.735 7.37333 175.503 7.048 176.505 7.048C177.295 7.048 177.956 7.28267 178.489 7.752C179.033 8.22133 179.305 8.93067 179.305 9.88C179.305 10.3173 179.241 10.8187 179.113 11.384H174.377V11.576C174.377 12.4507 174.553 13.1227 174.905 13.592C175.257 14.0507 175.828 14.28 176.617 14.28C176.937 14.28 177.305 14.2373 177.721 14.152C178.148 14.0667 178.559 13.9333 178.953 13.752L179.273 14.536ZM176.505 7.928C175.791 7.928 175.257 8.16267 174.905 8.632C174.553 9.09067 174.377 9.72533 174.377 10.536H178.297C178.319 10.3973 178.335 10.2693 178.345 10.152C178.356 10.024 178.361 9.90667 178.361 9.8C178.361 9.13867 178.175 8.664 177.801 8.376C177.439 8.07733 177.007 7.928 176.505 7.928ZM181.692 13.32V3.16H182.652V13.208C182.652 13.5707 182.7 13.8267 182.796 13.976C182.903 14.1253 183.105 14.2 183.404 14.2H183.66V15.08H183.356C182.78 15.08 182.359 14.936 182.092 14.648C181.825 14.36 181.692 13.9173 181.692 13.32ZM185.786 13.32V3.16H186.746V13.208C186.746 13.5707 186.794 13.8267 186.89 13.976C186.996 14.1253 187.199 14.2 187.498 14.2H187.754V15.08H187.45C186.874 15.08 186.452 14.936 186.186 14.648C185.919 14.36 185.786 13.9173 185.786 13.32ZM190.935 4.984H189.783V3.816H190.935V4.984ZM190.839 15H189.879V7.208H190.839V15Z" fill="white"/>
<path d="M9 3.8L16.6 22.4L24.16 3.8H29.4V31H24.8V20.6L25.4 11.08L18.64 27.8H14.36L7.76 11.04L8.36 20.6V31H3.76V3.8H9Z" fill="#15ACFC"/>
<path d="M40.7481 27.928C41.6014 27.928 42.3054 27.7253 42.8601 27.32C43.4147 26.9147 43.7561 26.3707 43.8841 25.688C44.0121 24.984 43.8521 24.2053 43.4041 23.352L46.3481 21.56L51.2121 31H47.2121L45.8041 27.832C45.5054 28.856 44.8867 29.6987 43.9481 30.36C43.0307 31 41.8467 31.32 40.3961 31.32C38.4974 31.32 37.0041 30.7867 35.9161 29.72C34.8494 28.6533 34.3161 27.2773 34.3161 25.592C34.3161 24.3973 34.6254 23.2773 35.2441 22.232C35.8841 21.1867 36.9614 20.1733 38.4761 19.192C37.4307 18.3813 36.6734 17.5707 36.2041 16.76C35.7347 15.928 35.5001 15.0427 35.5001 14.104C35.5001 13.144 35.7241 12.2693 36.1721 11.48C36.6201 10.6907 37.2707 10.072 38.1241 9.624C38.9987 9.15466 40.0654 8.92 41.3241 8.92C43.1374 8.92 44.5774 9.38933 45.6441 10.328C46.7107 11.2667 47.2441 12.568 47.2441 14.232C47.2441 15.2347 47.0414 16.0987 46.6361 16.824C46.2521 17.5493 45.7187 18.2107 45.0361 18.808C44.3534 19.384 43.5534 19.96 42.6361 20.536L40.3961 21.976C39.4361 22.5947 38.8067 23.192 38.5081 23.768C38.2094 24.344 38.0601 24.8987 38.0601 25.432C38.0601 26.2853 38.3054 26.9147 38.7961 27.32C39.3081 27.7253 39.9587 27.928 40.7481 27.928ZM39.0521 14.296C39.0521 14.7653 39.1801 15.288 39.4361 15.864C39.7134 16.44 40.1827 17.0267 40.8441 17.624C41.5907 17.1333 42.1561 16.728 42.5401 16.408C42.9241 16.0667 43.1907 15.7467 43.3401 15.448C43.4894 15.1493 43.5641 14.8187 43.5641 14.456C43.5641 13.688 43.3507 13.1333 42.9241 12.792C42.4974 12.4293 41.9747 12.248 41.3561 12.248C40.7161 12.248 40.1721 12.4187 39.7241 12.76C39.2761 13.1013 39.0521 13.6133 39.0521 14.296Z" fill="white"/>
<path d="M68.7816 20.56H59.6616V31H54.8616V3.8H69.9816V8.4H59.6616V15.96H68.7816V20.56Z" fill="#E4CC25"/>
<path d="M80.88 29.85V31H76.94V24.2H80.78V25.35H78.14V26.98H80.48V28.13H78.14V29.85H80.88ZM84.4113 24.2L86.3113 28.85L88.2013 24.2H89.5113V31H88.3613V28.4L88.5113 26.02L86.8213 30.2H85.7513L84.1013 26.01L84.2513 28.4V31H83.1013V24.2H84.4113ZM92.1923 31V24.2H94.4323C95.1457 24.2 95.679 24.38 96.0323 24.74C96.3923 25.1 96.5723 25.58 96.5723 26.18V26.71C96.5723 27.31 96.3923 27.7933 96.0323 28.16C95.679 28.52 95.1457 28.7 94.4323 28.7H93.3923V31H92.1923ZM94.4323 25.35H93.3923V27.55H94.4323C94.7257 27.55 94.949 27.4767 95.1023 27.33C95.2623 27.1833 95.3423 26.9767 95.3423 26.71V26.18C95.3423 25.92 95.2623 25.7167 95.1023 25.57C94.949 25.4233 94.7257 25.35 94.4323 25.35ZM99.9345 28.5V31H98.7345V24.2H101.005C101.691 24.2 102.218 24.3767 102.585 24.73C102.958 25.0767 103.145 25.5433 103.145 26.13V26.56C103.145 26.9467 103.061 27.2867 102.895 27.58C102.728 27.8733 102.488 28.0967 102.175 28.25C102.721 29.1833 103.188 30.1 103.575 31H102.205C101.871 30.1667 101.475 29.3333 101.015 28.5H99.9345ZM101.005 25.3H99.9345V27.4H101.005C101.298 27.4 101.521 27.3267 101.675 27.18C101.835 27.0267 101.915 26.82 101.915 26.56V26.13C101.915 25.8767 101.835 25.6767 101.675 25.53C101.521 25.3767 101.298 25.3 101.005 25.3ZM109.568 29.85V31H105.628V24.2H109.468V25.35H106.828V26.98H109.168V28.13H106.828V29.85H109.568ZM115.73 29.85V31H111.79V24.2H115.63V25.35H112.99V26.98H115.33V28.13H112.99V29.85H115.73ZM117.951 31V24.2H119.051C119.578 24.8867 120.078 25.6133 120.551 26.38C121.024 27.14 121.454 27.9233 121.841 28.73L121.751 26.7V24.2H122.901V31H121.801C121.374 30.16 120.931 29.3167 120.471 28.47C120.018 27.6167 119.534 26.8133 119.021 26.06L119.101 28.4V31H117.951ZM125.577 31V24.2H127.877C128.69 24.2 129.31 24.4267 129.737 24.88C130.164 25.3333 130.377 26 130.377 26.88V28.31C130.377 29.1967 130.164 29.8667 129.737 30.32C129.31 30.7733 128.69 31 127.877 31H125.577ZM127.827 25.35H126.777V29.85H127.827C128.3 29.85 128.637 29.7333 128.837 29.5C129.044 29.2667 129.147 28.87 129.147 28.31V26.88C129.147 26.3267 129.044 25.9333 128.837 25.7C128.637 25.4667 128.3 25.35 127.827 25.35ZM133.964 31H132.764V24.2H133.964V31ZM137.95 24.2L139.85 28.85L141.74 24.2H143.05V31H141.9V28.4L142.05 26.02L140.36 30.2H139.29L137.64 26.01L137.79 28.4V31H136.64V24.2H137.95ZM149.671 29.85V31H145.731V24.2H149.571V25.35H146.931V26.98H149.271V28.13H146.931V29.85H149.671ZM151.892 31V24.2H152.992C153.519 24.8867 154.019 25.6133 154.492 26.38C154.966 27.14 155.396 27.9233 155.782 28.73L155.692 26.7V24.2H156.842V31H155.742C155.316 30.16 154.872 29.3167 154.412 28.47C153.959 27.6167 153.476 26.8133 152.962 26.06L153.042 28.4V31H151.892ZM158.709 25.35V24.2H163.709V25.35H161.809V31H160.609V25.35H158.709ZM170.392 26.88V28.31C170.392 29.1767 170.176 29.86 169.742 30.36C169.309 30.8533 168.676 31.1 167.842 31.1C167.002 31.1 166.366 30.8533 165.932 30.36C165.506 29.86 165.292 29.1767 165.292 28.31V26.88C165.292 26.0133 165.506 25.3333 165.932 24.84C166.366 24.3467 167.002 24.1 167.842 24.1C168.676 24.1 169.309 24.3467 169.742 24.84C170.176 25.3333 170.392 26.0133 170.392 26.88ZM169.162 26.88C169.162 26.3333 169.056 25.9233 168.842 25.65C168.629 25.37 168.296 25.23 167.842 25.23C167.389 25.23 167.056 25.37 166.842 25.65C166.629 25.9233 166.522 26.3333 166.522 26.88V28.31C166.522 28.8567 166.629 29.27 166.842 29.55C167.056 29.83 167.389 29.97 167.842 29.97C168.296 29.97 168.629 29.83 168.842 29.55C169.056 29.27 169.162 28.8567 169.162 28.31V26.88ZM174.259 29.99C175.032 29.99 175.419 29.7033 175.419 29.13C175.419 28.8967 175.359 28.7133 175.239 28.58C175.125 28.4467 174.912 28.33 174.599 28.23L173.779 27.96C172.799 27.64 172.309 26.9967 172.309 26.03C172.309 25.47 172.482 25.01 172.829 24.65C173.182 24.2833 173.732 24.1 174.479 24.1C174.792 24.1 175.102 24.1367 175.409 24.21C175.715 24.2767 176.042 24.3867 176.389 24.54L176.019 25.57C175.699 25.4433 175.425 25.3533 175.199 25.3C174.979 25.24 174.752 25.21 174.519 25.21C174.212 25.21 173.969 25.2667 173.789 25.38C173.615 25.4867 173.529 25.6833 173.529 25.97C173.529 26.1833 173.589 26.36 173.709 26.5C173.835 26.6333 174.042 26.7467 174.329 26.84L175.149 27.11C175.642 27.2767 176.012 27.52 176.259 27.84C176.512 28.1533 176.639 28.57 176.639 29.09C176.639 29.69 176.449 30.1767 176.069 30.55C175.689 30.9167 175.092 31.1 174.279 31.1C173.959 31.1 173.625 31.0633 173.279 30.99C172.939 30.91 172.565 30.7767 172.159 30.59L172.529 29.56C172.902 29.72 173.219 29.8333 173.479 29.9C173.745 29.96 174.005 29.99 174.259 29.99ZM182.756 31H181.556V24.2H182.756V31ZM186.743 24.2L188.643 28.85L190.533 24.2H191.843V31H190.693V28.4L190.843 26.02L189.153 30.2H188.083L186.433 26.01L186.583 28.4V31H185.433V24.2H186.743ZM199.334 26.88V28.31C199.334 29.1767 199.117 29.86 198.684 30.36C198.25 30.8533 197.617 31.1 196.784 31.1C195.944 31.1 195.307 30.8533 194.874 30.36C194.447 29.86 194.234 29.1767 194.234 28.31V26.88C194.234 26.0133 194.447 25.3333 194.874 24.84C195.307 24.3467 195.944 24.1 196.784 24.1C197.617 24.1 198.25 24.3467 198.684 24.84C199.117 25.3333 199.334 26.0133 199.334 26.88ZM198.104 26.88C198.104 26.3333 197.997 25.9233 197.784 25.65C197.57 25.37 197.237 25.23 196.784 25.23C196.33 25.23 195.997 25.37 195.784 25.65C195.57 25.9233 195.464 26.3333 195.464 26.88V28.31C195.464 28.8567 195.57 29.27 195.784 29.55C195.997 29.83 196.33 29.97 196.784 29.97C197.237 29.97 197.57 29.83 197.784 29.55C197.997 29.27 198.104 28.8567 198.104 28.31V26.88ZM201.72 31V24.2H203.79C204.297 24.2 204.697 24.2733 204.99 24.42C205.29 24.5667 205.503 24.7733 205.63 25.04C205.763 25.3067 205.83 25.62 205.83 25.98V26.26C205.83 26.7867 205.603 27.19 205.15 27.47C205.47 27.5967 205.713 27.78 205.88 28.02C206.047 28.26 206.13 28.5467 206.13 28.88V29.16C206.13 29.5267 206.063 29.85 205.93 30.13C205.797 30.4033 205.577 30.6167 205.27 30.77C204.963 30.9233 204.553 31 204.04 31H201.72ZM203.79 25.3H202.92V27H203.79C204.057 27 204.257 26.94 204.39 26.82C204.53 26.6933 204.6 26.5233 204.6 26.31V25.98C204.6 25.7667 204.53 25.6 204.39 25.48C204.257 25.36 204.057 25.3 203.79 25.3ZM204.04 28.1H202.92V29.9H204.04C204.32 29.9 204.533 29.8333 204.68 29.7C204.827 29.5667 204.9 29.3867 204.9 29.16V28.83C204.9 28.6033 204.827 28.4267 204.68 28.3C204.533 28.1667 204.32 28.1 204.04 28.1ZM209.57 31H208.37V24.2H209.57V31ZM216.166 29.85V31H212.246V24.2H213.446V29.85H216.166ZM219.314 31H218.114V24.2H219.314V31ZM225.61 31L225.19 29.67H222.86L222.44 31H221.25L223.52 24.2H224.58L226.86 31H225.61ZM223.51 27.59L223.2 28.57H224.84L224.53 27.59L224.03 25.87L223.51 27.59ZM224.57 23.48H223.56L224.52 21.82L225.6 22.28L224.57 23.48ZM229.996 28.5V31H228.796V24.2H231.066C231.753 24.2 232.28 24.3767 232.646 24.73C233.02 25.0767 233.206 25.5433 233.206 26.13V26.56C233.206 26.9467 233.123 27.2867 232.956 27.58C232.79 27.8733 232.55 28.0967 232.236 28.25C232.783 29.1833 233.25 30.1 233.636 31H232.266C231.933 30.1667 231.536 29.3333 231.076 28.5H229.996ZM231.066 25.3H229.996V27.4H231.066C231.36 27.4 231.583 27.3267 231.736 27.18C231.896 27.0267 231.976 26.82 231.976 26.56V26.13C231.976 25.8767 231.896 25.6767 231.736 25.53C231.583 25.3767 231.36 25.3 231.066 25.3ZM236.89 31H235.69V24.2H236.89V31ZM244.376 26.88V28.31C244.376 29.1767 244.16 29.86 243.726 30.36C243.293 30.8533 242.66 31.1 241.826 31.1C240.986 31.1 240.35 30.8533 239.916 30.36C239.49 29.86 239.276 29.1767 239.276 28.31V26.88C239.276 26.0133 239.49 25.3333 239.916 24.84C240.35 24.3467 240.986 24.1 241.826 24.1C242.66 24.1 243.293 24.3467 243.726 24.84C244.16 25.3333 244.376 26.0133 244.376 26.88ZM243.146 26.88C243.146 26.3333 243.04 25.9233 242.826 25.65C242.613 25.37 242.28 25.23 241.826 25.23C241.373 25.23 241.04 25.37 240.826 25.65C240.613 25.9233 240.506 26.3333 240.506 26.88V28.31C240.506 28.8567 240.613 29.27 240.826 29.55C241.04 29.83 241.373 29.97 241.826 29.97C242.28 29.97 242.613 29.83 242.826 29.55C243.04 29.27 243.146 28.8567 243.146 28.31V26.88ZM248.243 29.99C249.016 29.99 249.403 29.7033 249.403 29.13C249.403 28.8967 249.343 28.7133 249.223 28.58C249.109 28.4467 248.896 28.33 248.583 28.23L247.763 27.96C246.783 27.64 246.293 26.9967 246.293 26.03C246.293 25.47 246.466 25.01 246.813 24.65C247.166 24.2833 247.716 24.1 248.463 24.1C248.776 24.1 249.086 24.1367 249.393 24.21C249.699 24.2767 250.026 24.3867 250.373 24.54L250.003 25.57C249.683 25.4433 249.409 25.3533 249.183 25.3C248.963 25.24 248.736 25.21 248.503 25.21C248.196 25.21 247.953 25.2667 247.773 25.38C247.599 25.4867 247.513 25.6833 247.513 25.97C247.513 26.1833 247.573 26.36 247.693 26.5C247.819 26.6333 248.026 26.7467 248.313 26.84L249.133 27.11C249.626 27.2767 249.996 27.52 250.243 27.84C250.496 28.1533 250.623 28.57 250.623 29.09C250.623 29.69 250.433 30.1767 250.053 30.55C249.673 30.9167 249.076 31.1 248.263 31.1C247.943 31.1 247.609 31.0633 247.263 30.99C246.923 30.91 246.549 30.7767 246.143 30.59L246.513 29.56C246.886 29.72 247.203 29.8333 247.463 29.9C247.729 29.96 247.989 29.99 248.243 29.99Z" fill="white"/>
</svg>
